# xmcd
#
# Track frame offsets:
#	150
#	16869
#	35313
#	51588
#	68496
#	85991
#	102407
#	125385
#	144120
#	160372
#
# Disc length: 2361 seconds
#
# Revision: 1
# Processed by: cddbd v1.5.2PL0 Copyright (c) Steve Scherf et al.
# Submitted via: audiograbber 1.83.01
#
DISCID=7c09370a
DTITLE=Randy Rogers and Wade Bowen - Hold My Beer
DYEAR=2015
DGENRE=Country
TTITLE0=In The Next Life
TTITLE1=I Had My Hopes Up High
TTITLE2='Til It Does
TTITLE3=Good Luck With That
TTITLE4=It's Been A Great Afternoon
TTITLE5=I've Got Standards
TTITLE6=El Dorado
TTITLE7=Hangin' Out In Bars
TTITLE8=Lady Bug
TTITLE9=Reasons To Quit
EXTD=
EXTT0=
EXTT1=
EXTT2=
EXTT3=
EXTT4=
EXTT5=
EXTT6=
EXTT7=
EXTT8=
EXTT9=
PLAYORDER=
